<?xml version="1.0" encoding="UTF-8"?>
<!DOCTYPE score-partwise PUBLIC "-//Recordare//DTD MusicXML 3.1 Partwise//EN" "http://www.musicxml.org/dtds/partwise.dtd">
<score-partwise version="3.1">
  <work>
    <work-title>SWAM Violin Reference Test - Complete Feature Demonstration</work-title>
  </work>
  <identification>
    <encoding>
      <software>Hand-crafted for SWAM Testing</software>
      <encoding-date>2026-04-16</encoding-date>
      <encoding-description>Comprehensive test file with clear markers for all SWAM features</encoding-description>
    </encoding>
  </identification>
  <part-list>
    <score-part id="P1">
      <part-name>Violin</part-name>
      <score-instrument id="P1-I1">
        <instrument-name>Violin</instrument-name>
      </score-instrument>
    </score-part>
  </part-list>
  <part id="P1">
    
    <!-- ========================================== -->
    <!-- MARKER 1: ACCENTS - Ascending (pp)        -->
    <!-- ========================================== -->
    <measure number="1">
      <attributes>
        <divisions>480</divisions>
        <key>
          <fifths>0</fifths>
        </key>
        <time>
          <beats>4</beats>
          <beat-type>4</beat-type>
        </time>
        <clef>
          <sign>G</sign>
          <line>2</line>
        </clef>
      </attributes>
      <direction placement="above">
        <direction-type>
          <words>MARKER 1: ACCENTS (pp)</words>
        </direction-type>
      </direction>
      <direction placement="below">
        <direction-type>
          <dynamics>
            <pp/>
          </dynamics>
        </direction-type>
        <sound dynamics="35"/>
      </direction>
      <note>
        <pitch>
          <step>G</step>
          <octave>4</octave>
        </pitch>
        <duration>480</duration>
        <type>quarter</type>
        <notations>
          <articulations>
            <accent/>
          </articulations>
        </notations>
      </note>
      <note>
        <pitch>
          <step>A</step>
          <octave>4</octave>
        </pitch>
        <duration>480</duration>
        <type>quarter</type>
        <notations>
          <articulations>
            <accent/>
          </articulations>
        </notations>
      </note>
      <note>
        <pitch>
          <step>B</step>
          <octave>4</octave>
        </pitch>
        <duration>480</duration>
        <type>quarter</type>
        <notations>
          <articulations>
            <accent/>
          </articulations>
        </notations>
      </note>
      <note>
        <pitch>
          <step>C</step>
          <octave>5</octave>
        </pitch>
        <duration>480</duration>
        <type>quarter</type>
        <notations>
          <articulations>
            <accent/>
          </articulations>
        </notations>
      </note>
    </measure>

    <!-- ========================================== -->
    <!-- MARKER 2: STACCATO - Ascending (mf)       -->
    <!-- ========================================== -->
    <measure number="2">
      <direction placement="above">
        <direction-type>
          <words>MARKER 2: STACCATO (mf)</words>
        </direction-type>
      </direction>
      <direction placement="below">
        <direction-type>
          <dynamics>
            <mf/>
          </dynamics>
        </direction-type>
        <sound dynamics="80"/>
      </direction>
      <note>
        <pitch>
          <step>D</step>
          <octave>5</octave>
        </pitch>
        <duration>480</duration>
        <type>quarter</type>
        <notations>
          <articulations>
            <staccato/>
          </articulations>
        </notations>
      </note>
      <note>
        <pitch>
          <step>E</step>
          <octave>5</octave>
        </pitch>
        <duration>480</duration>
        <type>quarter</type>
        <notations>
          <articulations>
            <staccato/>
          </articulations>
        </notations>
      </note>
      <note>
        <pitch>
          <step>F</step>
          <octave>5</octave>
        </pitch>
        <duration>480</duration>
        <type>quarter</type>
        <notations>
          <articulations>
            <staccato/>
          </articulations>
        </notations>
      </note>
      <note>
        <pitch>
          <step>G</step>
          <octave>5</octave>
        </pitch>
        <duration>480</duration>
        <type>quarter</type>
        <notations>
          <articulations>
            <staccato/>
          </articulations>
        </notations>
      </note>
    </measure>

    <!-- ========================================== -->
    <!-- MARKER 3: TENUTO & MARCATO                -->
    <!-- ========================================== -->
    <measure number="3">
      <direction placement="above">
        <direction-type>
          <words>MARKER 3: TENUTO + MARCATO</words>
        </direction-type>
      </direction>
      <note>
        <pitch>
          <step>A</step>
          <octave>5</octave>
        </pitch>
        <duration>480</duration>
        <type>quarter</type>
        <notations>
          <articulations>
            <tenuto/>
          </articulations>
        </notations>
      </note>
      <note>
        <pitch>
          <step>G</step>
          <octave>5</octave>
        </pitch>
        <duration>480</duration>
        <type>quarter</type>
        <notations>
          <articulations>
            <tenuto/>
          </articulations>
        </notations>
      </note>
      <note>
        <pitch>
          <step>F</step>
          <octave>5</octave>
        </pitch>
        <duration>480</duration>
        <type>quarter</type>
        <notations>
          <articulations>
            <strong-accent placement="above"/>
          </articulations>
        </notations>
      </note>
      <note>
        <pitch>
          <step>E</step>
          <octave>5</octave>
        </pitch>
        <duration>480</duration>
        <type>quarter</type>
        <notations>
          <articulations>
            <strong-accent placement="above"/>
          </articulations>
        </notations>
      </note>
    </measure>

    <!-- ========================================== -->
    <!-- MARKER 4: CRESCENDO (mp → f)              -->
    <!-- ========================================== -->
    <measure number="4">
      <direction placement="above">
        <direction-type>
          <words>MARKER 4: CRESCENDO</words>
        </direction-type>
      </direction>
      <direction placement="below">
        <direction-type>
          <dynamics>
            <mp/>
          </dynamics>
        </direction-type>
        <sound dynamics="65"/>
      </direction>
      <direction placement="below">
        <direction-type>
          <wedge type="crescendo"/>
        </direction-type>
      </direction>
      <note>
        <pitch>
          <step>D</step>
          <octave>5</octave>
        </pitch>
        <duration>480</duration>
        <type>quarter</type>
        <notations>
          <articulations>
            <detached-legato/>
          </articulations>
        </notations>
      </note>
      <note>
        <pitch>
          <step>E</step>
          <octave>5</octave>
        </pitch>
        <duration>480</duration>
        <type>quarter</type>
        <notations>
          <articulations>
            <detached-legato/>
          </articulations>
        </notations>
      </note>
      <note>
        <pitch>
          <step>F</step>
          <octave>5</octave>
        </pitch>
        <duration>480</duration>
        <type>quarter</type>
        <notations>
          <articulations>
            <detached-legato/>
          </articulations>
        </notations>
      </note>
      <note>
        <pitch>
          <step>G</step>
          <octave>5</octave>
        </pitch>
        <duration>480</duration>
        <type>quarter</type>
        <notations>
          <articulations>
            <detached-legato/>
          </articulations>
        </notations>
      </note>
      <direction placement="below">
        <direction-type>
          <wedge type="stop"/>
        </direction-type>
      </direction>
      <direction placement="below">
        <direction-type>
          <dynamics>
            <f/>
          </dynamics>
        </direction-type>
        <sound dynamics="95"/>
      </direction>
    </measure>

    <!-- ========================================== -->
    <!-- MARKER 5: LEGATO SLUR (portamento)        -->
    <!-- ========================================== -->
    <measure number="5">
      <direction placement="above">
        <direction-type>
          <words>MARKER 5: LEGATO SLUR</words>
        </direction-type>
      </direction>
      <note>
        <pitch>
          <step>G</step>
          <octave>4</octave>
        </pitch>
        <duration>480</duration>
        <type>quarter</type>
        <notations>
          <slur type="start" number="1"/>
        </notations>
      </note>
      <note>
        <pitch>
          <step>A</step>
          <octave>4</octave>
        </pitch>
        <duration>480</duration>
        <type>quarter</type>
      </note>
      <note>
        <pitch>
          <step>B</step>
          <octave>4</octave>
        </pitch>
        <duration>480</duration>
        <type>quarter</type>
      </note>
      <note>
        <pitch>
          <step>C</step>
          <octave>5</octave>
        </pitch>
        <duration>480</duration>
        <type>quarter</type>
        <notations>
          <slur type="stop" number="1"/>
        </notations>
      </note>
    </measure>

    <!-- ========================================== -->
    <!-- MARKER 6: DIMINUENDO (f → p)              -->
    <!-- ========================================== -->
    <measure number="6">
      <direction placement="above">
        <direction-type>
          <words>MARKER 6: DIMINUENDO</words>
        </direction-type>
      </direction>
      <direction placement="below">
        <direction-type>
          <wedge type="diminuendo"/>
        </direction-type>
      </direction>
      <note>
        <pitch>
          <step>D</step>
          <octave>5</octave>
        </pitch>
        <duration>960</duration>
        <type>half</type>
        <notations>
          <articulations>
            <tenuto/>
          </articulations>
        </notations>
      </note>
      <note>
        <pitch>
          <step>E</step>
          <octave>5</octave>
        </pitch>
        <duration>960</duration>
        <type>half</type>
        <notations>
          <articulations>
            <tenuto/>
          </articulations>
        </notations>
      </note>
      <direction placement="below">
        <direction-type>
          <wedge type="stop"/>
        </direction-type>
      </direction>
      <direction placement="below">
        <direction-type>
          <dynamics>
            <p/>
          </dynamics>
        </direction-type>
        <sound dynamics="50"/>
      </direction>
    </measure>

    <!-- ========================================== -->
    <!-- MARKER 7: GLISSANDO (wavy slide)          -->
    <!-- ========================================== -->
    <measure number="7">
      <direction placement="above">
        <direction-type>
          <words>MARKER 7: GLISSANDO</words>
        </direction-type>
      </direction>
      <note>
        <pitch>
          <step>C</step>
          <octave>5</octave>
        </pitch>
        <duration>960</duration>
        <type>half</type>
        <notations>
          <glissando type="start" number="1" line-type="wavy"/>
        </notations>
      </note>
      <note>
        <pitch>
          <step>G</step>
          <octave>5</octave>
        </pitch>
        <duration>960</duration>
        <type>half</type>
        <notations>
          <glissando type="stop" number="1"/>
        </notations>
      </note>
    </measure>

    <!-- ========================================== -->
    <!-- MARKER 8: VIBRATO (wavy line, ff)         -->
    <!-- ========================================== -->
    <measure number="8">
      <direction placement="above">
        <direction-type>
          <words>MARKER 8: VIBRATO</words>
        </direction-type>
      </direction>
      <direction placement="above">
        <direction-type>
          <words>vibrato</words>
        </direction-type>
      </direction>
      <direction placement="below">
        <direction-type>
          <dynamics>
            <ff/>
          </dynamics>
        </direction-type>
        <sound dynamics="110"/>
      </direction>
      <note>
        <pitch>
          <step>A</step>
          <octave>5</octave>
        </pitch>
        <duration>1920</duration>
        <type>whole</type>
        <notations>
          <ornaments>
            <wavy-line type="start" number="1"/>
          </ornaments>
        </notations>
      </note>
    </measure>

    <!-- ========================================== -->
    <!-- MARKER 9: SUL PONTICELLO (vibrato cont.)  -->
    <!-- ========================================== -->
    <measure number="9">
      <direction placement="above">
        <direction-type>
          <words>MARKER 9: SUL PONTICELLO</words>
        </direction-type>
      </direction>
      <direction placement="above">
        <direction-type>
          <words>sul pont.</words>
        </direction-type>
      </direction>
      <note>
        <pitch>
          <step>E</step>
          <octave>5</octave>
        </pitch>
        <duration>480</duration>
        <type>quarter</type>
        <notations>
          <technical>
            <other-technical>sul ponticello</other-technical>
          </technical>
        </notations>
      </note>
      <note>
        <pitch>
          <step>F</step>
          <octave>5</octave>
        </pitch>
        <duration>480</duration>
        <type>quarter</type>
      </note>
      <note>
        <pitch>
          <step>G</step>
          <octave>5</octave>
        </pitch>
        <duration>480</duration>
        <type>quarter</type>
      </note>
      <note>
        <pitch>
          <step>A</step>
          <octave>5</octave>
        </pitch>
        <duration>480</duration>
        <type>quarter</type>
        <notations>
          <ornaments>
            <wavy-line type="stop" number="1"/>
          </ornaments>
        </notations>
      </note>
    </measure>

    <!-- ========================================== -->
    <!-- MARKER 10: SUL TASTO (p)                  -->
    <!-- ========================================== -->
    <measure number="10">
      <direction placement="above">
        <direction-type>
          <words>MARKER 10: SUL TASTO</words>
        </direction-type>
      </direction>
      <direction placement="above">
        <direction-type>
          <words>sul tasto</words>
        </direction-type>
      </direction>
      <direction placement="below">
        <direction-type>
          <dynamics>
            <p/>
          </dynamics>
        </direction-type>
        <sound dynamics="50"/>
      </direction>
      <note>
        <pitch>
          <step>G</step>
          <octave>5</octave>
        </pitch>
        <duration>480</duration>
        <type>quarter</type>
        <notations>
          <technical>
            <other-technical>sul tasto</other-technical>
          </technical>
        </notations>
      </note>
      <note>
        <pitch>
          <step>F</step>
          <octave>5</octave>
        </pitch>
        <duration>480</duration>
        <type>quarter</type>
      </note>
      <note>
        <pitch>
          <step>E</step>
          <octave>5</octave>
        </pitch>
        <duration>480</duration>
        <type>quarter</type>
      </note>
      <note>
        <pitch>
          <step>D</step>
          <octave>5</octave>
        </pitch>
        <duration>480</duration>
        <type>quarter</type>
      </note>
    </measure>

    <!-- ========================================== -->
    <!-- MARKER 11: TREMOLO (rapid bow)            -->
    <!-- ========================================== -->
    <measure number="11">
      <direction placement="above">
        <direction-type>
          <words>MARKER 11: TREMOLO</words>
        </direction-type>
      </direction>
      <direction placement="below">
        <direction-type>
          <dynamics>
            <mp/>
          </dynamics>
        </direction-type>
        <sound dynamics="60"/>
      </direction>
      <note>
        <pitch>
          <step>A</step>
          <octave>5</octave>
        </pitch>
        <duration>480</duration>
        <type>quarter</type>
        <notations>
          <ornaments>
            <tremolo type="single">3</tremolo>
          </ornaments>
        </notations>
      </note>
      <note>
        <pitch>
          <step>A</step>
          <octave>5</octave>
        </pitch>
        <duration>480</duration>
        <type>quarter</type>
        <notations>
          <ornaments>
            <tremolo type="single">3</tremolo>
          </ornaments>
        </notations>
      </note>
      <note>
        <pitch>
          <step>G</step>
          <octave>5</octave>
        </pitch>
        <duration>480</duration>
        <type>quarter</type>
        <notations>
          <ornaments>
            <tremolo type="single">3</tremolo>
          </ornaments>
        </notations>
      </note>
      <note>
        <pitch>
          <step>F</step>
          <octave>5</octave>
        </pitch>
        <duration>480</duration>
        <type>quarter</type>
        <notations>
          <ornaments>
            <tremolo type="single">3</tremolo>
          </ornaments>
        </notations>
      </note>
    </measure>

    <!-- ========================================== -->
    <!-- MARKER 12: PIZZICATO (plucked)            -->
    <!-- ========================================== -->
    <measure number="12">
      <direction placement="above">
        <direction-type>
          <words>MARKER 12: PIZZICATO</words>
        </direction-type>
      </direction>
      <direction placement="above">
        <direction-type>
          <words>pizz.</words>
        </direction-type>
      </direction>
      <note>
        <pitch>
          <step>E</step>
          <octave>5</octave>
        </pitch>
        <duration>480</duration>
        <type>quarter</type>
        <notations>
          <technical>
            <pizzicato/>
          </technical>
        </notations>
      </note>
      <note>
        <pitch>
          <step>D</step>
          <octave>5</octave>
        </pitch>
        <duration>480</duration>
        <type>quarter</type>
        <notations>
          <technical>
            <pizzicato/>
          </technical>
        </notations>
      </note>
      <note>
        <pitch>
          <step>C</step>
          <octave>5</octave>
        </pitch>
        <duration>480</duration>
        <type>quarter</type>
        <notations>
          <technical>
            <pizzicato/>
          </technical>
        </notations>
      </note>
      <note>
        <pitch>
          <step>B</step>
          <octave>4</octave>
        </pitch>
        <duration>480</duration>
        <type>quarter</type>
        <notations>
          <technical>
            <pizzicato/>
          </technical>
        </notations>
      </note>
    </measure>

    <!-- ========================================== -->
    <!-- MARKER 13: MIXED ARTICULATIONS (arco)     -->
    <!-- ========================================== -->
    <measure number="13">
      <direction placement="above">
        <direction-type>
          <words>MARKER 13: MIXED ARTICULATIONS</words>
        </direction-type>
      </direction>
      <direction placement="above">
        <direction-type>
          <words>arco</words>
        </direction-type>
      </direction>
      <direction placement="below">
        <direction-type>
          <dynamics>
            <mf/>
          </dynamics>
        </direction-type>
        <sound dynamics="80"/>
      </direction>
      <note>
        <pitch>
          <step>C</step>
          <octave>5</octave>
        </pitch>
        <duration>480</duration>
        <type>quarter</type>
        <notations>
          <articulations>
            <staccato/>
          </articulations>
        </notations>
      </note>
      <note>
        <pitch>
          <step>D</step>
          <octave>5</octave>
        </pitch>
        <duration>480</duration>
        <type>quarter</type>
        <notations>
          <articulations>
            <accent/>
          </articulations>
        </notations>
      </note>
      <note>
        <pitch>
          <step>E</step>
          <octave>5</octave>
        </pitch>
        <duration>240</duration>
        <type>eighth</type>
        <notations>
          <slur type="start" number="2"/>
        </notations>
      </note>
      <note>
        <pitch>
          <step>F</step>
          <octave>5</octave>
        </pitch>
        <duration>240</duration>
        <type>eighth</type>
      </note>
      <note>
        <pitch>
          <step>G</step>
          <octave>5</octave>
        </pitch>
        <duration>240</duration>
        <type>eighth</type>
      </note>
      <note>
        <pitch>
          <step>A</step>
          <octave>5</octave>
        </pitch>
        <duration>240</duration>
        <type>eighth</type>
        <notations>
          <slur type="stop" number="2"/>
        </notations>
      </note>
    </measure>

    <!-- ========================================== -->
    <!-- MARKER 14: FINAL CRESCENDO (→ fff)        -->
    <!-- ========================================== -->
    <measure number="14">
      <direction placement="above">
        <direction-type>
          <words>MARKER 14: FINAL CRESCENDO</words>
        </direction-type>
      </direction>
      <direction placement="below">
        <direction-type>
          <wedge type="crescendo"/>
        </direction-type>
      </direction>
      <note>
        <pitch>
          <step>D</step>
          <octave>5</octave>
        </pitch>
        <duration>480</duration>
        <type>quarter</type>
        <notations>
          <articulations>
            <detached-legato/>
          </articulations>
        </notations>
      </note>
      <note>
        <pitch>
          <step>E</step>
          <octave>5</octave>
        </pitch>
        <duration>480</duration>
        <type>quarter</type>
        <notations>
          <articulations>
            <detached-legato/>
          </articulations>
        </notations>
      </note>
      <note>
        <pitch>
          <step>F</step>
          <octave>5</octave>
        </pitch>
        <duration>480</duration>
        <type>quarter</type>
        <notations>
          <articulations>
            <detached-legato/>
          </articulations>
        </notations>
      </note>
      <direction placement="below">
        <direction-type>
          <wedge type="stop"/>
        </direction-type>
      </direction>
      <direction placement="below">
        <direction-type>
          <dynamics>
            <fff/>
          </dynamics>
        </direction-type>
        <sound dynamics="120"/>
      </direction>
      <note>
        <pitch>
          <step>G</step>
          <octave>5</octave>
        </pitch>
        <duration>480</duration>
        <type>quarter</type>
        <notations>
          <articulations>
            <accent/>
          </articulations>
          <fermata type="upright"/>
        </notations>
      </note>
      <barline location="right">
        <bar-style>light-heavy</bar-style>
      </barline>
    </measure>

  </part>
</score-partwise>
