<?xml version="1.0" encoding="UTF-8" standalone="no"?>
<!DOCTYPE score-partwise PUBLIC "-//Recordare//DTD MusicXML 3.1 Partwise//EN"
 "http://www.musicxml.org/dtds/partwise.dtd">

<score-partwise version="3.1">
  <part-list>
    <score-part id="P1">
      <part-name>Violin</part-name>
    </score-part>
  </part-list>

  <part id="P1">

    <!-- MEASURE 1: mf + accents -->
    <measure number="1">
      <attributes>
        <divisions>1</divisions>
        <key><fifths>0</fifths></key>
        <time><beats>4</beats><beat-type>4</beat-type></time>
        <clef><sign>G</sign><line>2</line></clef>
      </attributes>
      <direction>
        <direction-type><dynamics><mf/></dynamics></direction-type>
        <sound dynamics="80"/>
      </direction>

      <note><pitch><step>A</step><octave>4</octave></pitch><duration>1</duration>
        <notations><articulations><accent/></articulations></notations>
      </note>
      <note><pitch><step>B</step><octave>4</octave></pitch><duration>1</duration>
        <notations><articulations><accent/></articulations></notations>
      </note>
      <note><pitch><step>C</step><octave>5</octave></pitch><duration>1</duration>
        <notations><articulations><accent/></articulations></notations>
      </note>
      <note><pitch><step>D</step><octave>5</octave></pitch><duration>1</duration>
        <notations><articulations><accent/></articulations></notations>
      </note>
    </measure>

    <!-- MEASURE 2: staccato -->
    <measure number="2">
      <note><pitch><step>E</step><octave>5</octave></pitch><duration>1</duration>
        <notations><articulations><staccato/></articulations></notations>
      </note>
      <note><pitch><step>D</step><octave>5</octave></pitch><duration>1</duration>
        <notations><articulations><staccato/></articulations></notations>
      </note>
      <note><pitch><step>C</step><octave>5</octave></pitch><duration>1</duration>
        <notations><articulations><staccato/></articulations></notations>
      </note>
      <note><pitch><step>B</step><octave>4</octave></pitch><duration>1</duration>
        <notations><articulations><staccato/></articulations></notations>
      </note>
    </measure>

    <!-- MEASURE 3: legato slur -->
    <measure number="3">
      <note>
        <pitch><step>A</step><octave>4</octave></pitch><duration>1</duration>
        <notations><slur type="start"/></notations>
      </note>
      <note><pitch><step>B</step><octave>4</octave></pitch><duration>1</duration></note>
      <note><pitch><step>C</step><octave>5</octave></pitch><duration>1</duration></note>
      <note>
        <pitch><step>D</step><octave>5</octave></pitch><duration>1</duration>
        <notations><slur type="stop"/></notations>
      </note>
    </measure>

    <!-- MEASURE 4: crescendo -->
    <measure number="4">
      <direction placement="above">
        <direction-type>
          <wedge number="1" spread="0" type="crescendo"/>
        </direction-type>
      </direction>

      <note><pitch><step>E</step><octave>5</octave></pitch><duration>1</duration></note>
      <note><pitch><step>F</step><octave>5</octave></pitch><duration>1</duration></note>
      <note><pitch><step>G</step><octave>5</octave></pitch><duration>1</duration></note>
      <note><pitch><step>A</step><octave>5</octave></pitch><duration>1</duration></note>

      <direction placement="above">
        <direction-type>
          <wedge number="1" spread="15" type="stop"/>
        </direction-type>
      </direction>
    </measure>

    <!-- MEASURE 5: forte + mixed articulation -->
    <measure number="5">
      <direction>
        <direction-type><dynamics><f/></dynamics></direction-type>
        <sound dynamics="100"/>
      </direction>

      <note><pitch><step>G</step><octave>5</octave></pitch><duration>1</duration>
        <notations><articulations><accent/></articulations></notations>
      </note>
      <note><pitch><step>F</step><octave>5</octave></pitch><duration>1</duration>
        <notations><articulations><staccato/></articulations></notations>
      </note>
      <note><pitch><step>E</step><octave>5</octave></pitch><duration>1</duration>
        <notations><articulations><tenuto/></articulations></notations>
      </note>
      <note><pitch><step>D</step><octave>5</octave></pitch><duration>1</duration></note>
    </measure>

    <!-- MEASURE 6: descending slur -->
    <measure number="6">
      <note>
        <pitch><step>C</step><octave>5</octave></pitch><duration>1</duration>
        <notations><slur type="start"/></notations>
      </note>
      <note><pitch><step>B</step><octave>4</octave></pitch><duration>1</duration></note>
      <note><pitch><step>A</step><octave>4</octave></pitch><duration>1</duration></note>
      <note>
        <pitch><step>G</step><octave>4</octave></pitch><duration>1</duration>
        <notations><slur type="stop"/></notations>
      </note>
    </measure>

    <!-- MEASURE 7: alternating accents -->
    <measure number="7">
      <note><pitch><step>A</step><octave>4</octave></pitch><duration>1</duration>
        <notations><articulations><accent/></articulations></notations>
      </note>
      <note><pitch><step>C</step><octave>5</octave></pitch><duration>1</duration></note>
      <note><pitch><step>E</step><octave>5</octave></pitch><duration>1</duration>
        <notations><articulations><accent/></articulations></notations>
      </note>
      <note><pitch><step>G</step><octave>5</octave></pitch><duration>1</duration></note>
    </measure>

    <!-- MEASURE 8: diminuendo -->
    <measure number="8">
      <direction placement="above">
        <direction-type>
          <wedge number="2" spread="15" type="diminuendo"/>
        </direction-type>
      </direction>

      <note><pitch><step>A</step><octave>5</octave></pitch><duration>1</duration></note>
      <note><pitch><step>G</step><octave>5</octave></pitch><duration>1</duration></note>
      <note><pitch><step>F</step><octave>5</octave></pitch><duration>1</duration></note>
      <note><pitch><step>E</step><octave>5</octave></pitch><duration>1</duration></note>

      <direction placement="above">
        <direction-type>
          <wedge number="2" spread="0" type="stop"/>
        </direction-type>
      </direction>
    </measure>

    <!-- MEASURE 9: mixed legato + staccato -->
    <measure number="9">
      <note>
        <pitch><step>D</step><octave>5</octave></pitch><duration>1</duration>
        <notations><slur type="start"/></notations>
      </note>
      <note><pitch><step>C</step><octave>5</octave></pitch><duration>1</duration>
        <notations><articulations><staccato/></articulations></notations>
      </note>
      <note><pitch><step>B</step><octave>4</octave></pitch><duration>1</duration></note>
      <note>
        <pitch><step>A</step><octave>4</octave></pitch><duration>1</duration>
        <notations><slur type="stop"/></notations>
      </note>
    </measure>

    <!-- MEASURE 10: final phrase with emphasis -->
    <measure number="10">
      <direction>
        <direction-type><dynamics><mf/></dynamics></direction-type>
        <sound dynamics="80"/>
      </direction>

      <note><pitch><step>C</step><octave>5</octave></pitch><duration>2</duration>
        <notations><articulations><accent/></articulations></notations>
      </note>
      <note><pitch><step>B</step><octave>4</octave></pitch><duration>2</duration>
        <notations><articulations><tenuto/></articulations></notations>
      </note>
    </measure>

  </part>
</score-partwise>