<?xml version="1.0" encoding="UTF-8" standalone="no"?>
<!DOCTYPE score-partwise PUBLIC "-//Recordare//DTD MusicXML 3.1 Partwise//EN"
 "http://www.musicxml.org/dtds/partwise.dtd">

<score-partwise version="3.1">
  <part-list>
    <score-part id="P1">
      <part-name>Violin Test - MARKED</part-name>
    </score-part>
  </part-list>

  <part id="P1">

    <!-- ========================================== -->
    <!-- MARKER 1: ASCENDING ACCENTS (C-D-E-F)     -->
    <!-- ========================================== -->
    <measure number="1">
      <attributes>
        <divisions>1</divisions>
        <key><fifths>0</fifths></key>
        <time><beats>4</beats><beat-type>4</beat-type></time>
        <clef><sign>G</sign><line>2</line></clef>
      </attributes>
      <direction>
        <direction-type><dynamics><mf/></dynamics></direction-type>
        <sound dynamics="80"/>
      </direction>

      <note><pitch><step>C</step><octave>5</octave></pitch><duration>1</duration>
        <notations><articulations><accent/></articulations></notations>
      </note>
      <note><pitch><step>D</step><octave>5</octave></pitch><duration>1</duration>
        <notations><articulations><accent/></articulations></notations>
      </note>
      <note><pitch><step>E</step><octave>5</octave></pitch><duration>1</duration>
        <notations><articulations><accent/></articulations></notations>
      </note>
      <note><pitch><step>F</step><octave>5</octave></pitch><duration>1</duration>
        <notations><articulations><accent/></articulations></notations>
      </note>
    </measure>

    <!-- ========================================== -->
    <!-- MARKER 2: ASCENDING STACCATO (G-A-B-C6)   -->
    <!-- ========================================== -->
    <measure number="2">
      <note><pitch><step>G</step><octave>5</octave></pitch><duration>1</duration>
        <notations><articulations><staccato/></articulations></notations>
      </note>
      <note><pitch><step>A</step><octave>5</octave></pitch><duration>1</duration>
        <notations><articulations><staccato/></articulations></notations>
      </note>
      <note><pitch><step>B</step><octave>5</octave></pitch><duration>1</duration>
        <notations><articulations><staccato/></articulations></notations>
      </note>
      <note><pitch><step>C</step><octave>6</octave></pitch><duration>1</duration>
        <notations><articulations><staccato/></articulations></notations>
      </note>
    </measure>

    <!-- ========================================== -->
    <!-- MARKER 3: DESCENDING STACCATO (C6-B-A-G)  -->
    <!-- ========================================== -->
    <measure number="3">
      <direction>
        <direction-type><dynamics><f/></dynamics></direction-type>
        <sound dynamics="100"/>
      </direction>
      
      <note><pitch><step>C</step><octave>6</octave></pitch><duration>1</duration>
        <notations><articulations><staccato/></articulations></notations>
      </note>
      <note><pitch><step>B</step><octave>5</octave></pitch><duration>1</duration>
        <notations><articulations><staccato/></articulations></notations>
      </note>
      <note><pitch><step>A</step><octave>5</octave></pitch><duration>1</duration>
        <notations><articulations><staccato/></articulations></notations>
      </note>
      <note><pitch><step>G</step><octave>5</octave></pitch><duration>1</duration>
        <notations><articulations><staccato/></articulations></notations>
      </note>
    </measure>

    <!-- ========================================== -->
    <!-- MARKER 4: OCTAVE JUMP TEST (C5-C6-C5-C6)  -->
    <!-- ========================================== -->
    <measure number="4">
      <note><pitch><step>C</step><octave>5</octave></pitch><duration>1</duration>
        <notations><articulations><accent/></articulations></notations>
      </note>
      <note><pitch><step>C</step><octave>6</octave></pitch><duration>1</duration>
        <notations><articulations><accent/></articulations></notations>
      </note>
      <note><pitch><step>C</step><octave>5</octave></pitch><duration>1</duration>
        <notations><articulations><accent/></articulations></notations>
      </note>
      <note><pitch><step>C</step><octave>6</octave></pitch><duration>1</duration>
        <notations><articulations><accent/></articulations></notations>
      </note>
    </measure>

    <!-- ========================================== -->
    <!-- MARKER 5: LEGATO SLUR ASCENDING (D-E-F-G) -->
    <!-- ========================================== -->
    <measure number="5">
      <direction>
        <direction-type><dynamics><mp/></dynamics></direction-type>
        <sound dynamics="60"/>
      </direction>

      <note>
        <pitch><step>D</step><octave>5</octave></pitch><duration>1</duration>
        <notations><slur type="start"/></notations>
      </note>
      <note><pitch><step>E</step><octave>5</octave></pitch><duration>1</duration></note>
      <note><pitch><step>F</step><octave>5</octave></pitch><duration>1</duration></note>
      <note>
        <pitch><step>G</step><octave>5</octave></pitch><duration>1</duration>
        <notations><slur type="stop"/></notations>
      </note>
    </measure>

    <!-- ========================================== -->
    <!-- MARKER 6: TREMOLO (A5 repeated 8x fast)   -->
    <!-- ========================================== -->
    <measure number="6">
      <note><pitch><step>A</step><octave>5</octave></pitch><duration>1</duration>
        <notations>
          <ornaments><tremolo type="single">3</tremolo></ornaments>
        </notations>
      </note>
      <note><pitch><step>A</step><octave>5</octave></pitch><duration>1</duration>
        <notations>
          <ornaments><tremolo type="single">3</tremolo></ornaments>
        </notations>
      </note>
      <note><pitch><step>A</step><octave>5</octave></pitch><duration>1</duration>
        <notations>
          <ornaments><tremolo type="single">3</tremolo></ornaments>
        </notations>
      </note>
      <note><pitch><step>A</step><octave>5</octave></pitch><duration>1</duration>
        <notations>
          <ornaments><tremolo type="single">3</tremolo></ornaments>
        </notations>
      </note>
    </measure>

    <!-- ========================================== -->
    <!-- MARKER 7: CRESCENDO E->F->G->A            -->
    <!-- ========================================== -->
    <measure number="7">
      <direction placement="above">
        <direction-type>
          <wedge number="1" spread="0" type="crescendo"/>
        </direction-type>
      </direction>

      <note><pitch><step>E</step><octave>5</octave></pitch><duration>1</duration></note>
      <note><pitch><step>F</step><octave>5</octave></pitch><duration>1</duration></note>
      <note><pitch><step>G</step><octave>5</octave></pitch><duration>1</duration></note>
      <note><pitch><step>A</step><octave>5</octave></pitch><duration>1</duration></note>

      <direction placement="above">
        <direction-type>
          <wedge number="1" spread="15" type="stop"/>
        </direction-type>
      </direction>
    </measure>

    <!-- ========================================== -->
    <!-- MARKER 8: DIMINUENDO A->G->F->E           -->
    <!-- ========================================== -->
    <measure number="8">
      <direction>
        <direction-type><dynamics><f/></dynamics></direction-type>
        <sound dynamics="100"/>
      </direction>
      
      <direction placement="above">
        <direction-type>
          <wedge number="2" spread="15" type="diminuendo"/>
        </direction-type>
      </direction>

      <note><pitch><step>A</step><octave>5</octave></pitch><duration>1</duration></note>
      <note><pitch><step>G</step><octave>5</octave></pitch><duration>1</duration></note>
      <note><pitch><step>F</step><octave>5</octave></pitch><duration>1</duration></note>
      <note><pitch><step>E</step><octave>5</octave></pitch><duration>1</duration></note>

      <direction placement="above">
        <direction-type>
          <wedge number="2" spread="0" type="stop"/>
        </direction-type>
      </direction>
    </measure>

    <!-- ========================================== -->
    <!-- MARKER 9: FINISH - LONG NOTE G5           -->
    <!-- ========================================== -->
    <measure number="9">
      <direction>
        <direction-type><dynamics><p/></dynamics></direction-type>
        <sound dynamics="50"/>
      </direction>

      <note><pitch><step>G</step><octave>5</octave></pitch><duration>4</duration></note>
    </measure>

  </part>
</score-partwise>
