<?xml version="1.0" encoding="UTF-8"?>
<!DOCTYPE score-partwise PUBLIC "-//Recordare//DTD MusicXML 3.1 Partwise//EN" "http://www.musicxml.org/dtds/partwise.dtd">
<score-partwise version="3.1">
  <work>
    <work-title>SWAM Violin Feature Demonstration</work-title>
  </work>
  <identification>
    <encoding>
      <software>Hand-crafted for SWAM Testing</software>
      <encoding-date>2026-04-16</encoding-date>
    </encoding>
  </identification>
  <part-list>
    <score-part id="P1">
      <part-name>Violin</part-name>
      <score-instrument id="P1-I1">
        <instrument-name>Violin</instrument-name>
      </score-instrument>
    </score-part>
  </part-list>
  <part id="P1">
    
    <!-- MEASURE 1: pp with accent articulations -->
    <measure number="1">
      <attributes>
        <divisions>480</divisions>
        <key>
          <fifths>0</fifths>
        </key>
        <time>
          <beats>4</beats>
          <beat-type>4</beat-type>
        </time>
        <clef>
          <sign>G</sign>
          <line>2</line>
        </clef>
      </attributes>
      <direction placement="below">
        <direction-type>
          <dynamics>
            <pp/>
          </dynamics>
        </direction-type>
        <sound dynamics="35"/>
      </direction>
      <note>
        <pitch>
          <step>G</step>
          <octave>4</octave>
        </pitch>
        <duration>480</duration>
        <type>quarter</type>
        <notations>
          <articulations>
            <accent/>
          </articulations>
        </notations>
      </note>
      <note>
        <pitch>
          <step>A</step>
          <octave>4</octave>
        </pitch>
        <duration>480</duration>
        <type>quarter</type>
        <notations>
          <articulations>
            <accent/>
          </articulations>
        </notations>
      </note>
      <note>
        <pitch>
          <step>B</step>
          <octave>4</octave>
        </pitch>
        <duration>480</duration>
        <type>quarter</type>
        <notations>
          <articulations>
            <accent/>
          </articulations>
        </notations>
      </note>
      <note>
        <pitch>
          <step>C</step>
          <octave>5</octave>
        </pitch>
        <duration>480</duration>
        <type>quarter</type>
        <notations>
          <articulations>
            <accent/>
          </articulations>
        </notations>
      </note>
    </measure>

    <!-- MEASURE 2: mf with staccato -->
    <measure number="2">
      <direction placement="below">
        <direction-type>
          <dynamics>
            <mf/>
          </dynamics>
        </direction-type>
        <sound dynamics="80"/>
      </direction>
      <note>
        <pitch>
          <step>D</step>
          <octave>5</octave>
        </pitch>
        <duration>480</duration>
        <type>quarter</type>
        <notations>
          <articulations>
            <staccato/>
          </articulations>
        </notations>
      </note>
      <note>
        <pitch>
          <step>E</step>
          <octave>5</octave>
        </pitch>
        <duration>480</duration>
        <type>quarter</type>
        <notations>
          <articulations>
            <staccato/>
          </articulations>
        </notations>
      </note>
      <note>
        <pitch>
          <step>F</step>
          <octave>5</octave>
        </pitch>
        <duration>480</duration>
        <type>quarter</type>
        <notations>
          <articulations>
            <staccato/>
          </articulations>
        </notations>
      </note>
      <note>
        <pitch>
          <step>G</step>
          <octave>5</octave>
        </pitch>
        <duration>480</duration>
        <type>quarter</type>
        <notations>
          <articulations>
            <staccato/>
          </articulations>
        </notations>
      </note>
    </measure>

    <!-- MEASURE 3: Tenuto and marcato -->
    <measure number="3">
      <note>
        <pitch>
          <step>A</step>
          <octave>5</octave>
        </pitch>
        <duration>480</duration>
        <type>quarter</type>
        <notations>
          <articulations>
            <tenuto/>
          </articulations>
        </notations>
      </note>
      <note>
        <pitch>
          <step>G</step>
          <octave>5</octave>
        </pitch>
        <duration>480</duration>
        <type>quarter</type>
        <notations>
          <articulations>
            <tenuto/>
          </articulations>
        </notations>
      </note>
      <note>
        <pitch>
          <step>F</step>
          <octave>5</octave>
        </pitch>
        <duration>480</duration>
        <type>quarter</type>
        <notations>
          <articulations>
            <strong-accent placement="above"/>
          </articulations>
        </notations>
      </note>
      <note>
        <pitch>
          <step>E</step>
          <octave>5</octave>
        </pitch>
        <duration>480</duration>
        <type>quarter</type>
        <notations>
          <articulations>
            <strong-accent placement="above"/>
          </articulations>
        </notations>
      </note>
    </measure>

    <!-- MEASURE 4: Crescendo hairpin (mp to f) -->
    <measure number="4">
      <direction placement="below">
        <direction-type>
          <dynamics>
            <mp/>
          </dynamics>
        </direction-type>
        <sound dynamics="65"/>
      </direction>
      <direction placement="below">
        <direction-type>
          <wedge type="crescendo"/>
        </direction-type>
      </direction>
      <note>
        <pitch>
          <step>D</step>
          <octave>5</octave>
        </pitch>
        <duration>480</duration>
        <type>quarter</type>
      </note>
      <note>
        <pitch>
          <step>C</step>
          <octave>5</octave>
        </pitch>
        <duration>480</duration>
        <type>quarter</type>
      </note>
      <note>
        <pitch>
          <step>B</step>
          <octave>4</octave>
        </pitch>
        <duration>480</duration>
        <type>quarter</type>
      </note>
      <note>
        <pitch>
          <step>A</step>
          <octave>4</octave>
        </pitch>
        <duration>480</duration>
        <type>quarter</type>
      </note>
      <direction placement="below">
        <direction-type>
          <wedge type="stop"/>
        </direction-type>
      </direction>
      <direction placement="below">
        <direction-type>
          <dynamics>
            <f/>
          </dynamics>
        </direction-type>
        <sound dynamics="95"/>
      </direction>
    </measure>

    <!-- MEASURE 5: Slurred legato passage -->
    <measure number="5">
      <note>
        <pitch>
          <step>G</step>
          <octave>4</octave>
        </pitch>
        <duration>480</duration>
        <type>quarter</type>
        <notations>
          <slur type="start" number="1"/>
        </notations>
      </note>
      <note>
        <pitch>
          <step>A</step>
          <octave>4</octave>
        </pitch>
        <duration>480</duration>
        <type>quarter</type>
      </note>
      <note>
        <pitch>
          <step>B</step>
          <octave>4</octave>
        </pitch>
        <duration>480</duration>
        <type>quarter</type>
      </note>
      <note>
        <pitch>
          <step>C</step>
          <octave>5</octave>
        </pitch>
        <duration>480</duration>
        <type>quarter</type>
        <notations>
          <slur type="stop" number="1"/>
        </notations>
      </note>
    </measure>

    <!-- MEASURE 6: Diminuendo (f to p) -->
    <measure number="6">
      <direction placement="below">
        <direction-type>
          <wedge type="diminuendo"/>
        </direction-type>
      </direction>
      <note>
        <pitch>
          <step>D</step>
          <octave>5</octave>
        </pitch>
        <duration>960</duration>
        <type>half</type>
      </note>
      <note>
        <pitch>
          <step>E</step>
          <octave>5</octave>
        </pitch>
        <duration>960</duration>
        <type>half</type>
      </note>
      <direction placement="below">
        <direction-type>
          <wedge type="stop"/>
        </direction-type>
      </direction>
      <direction placement="below">
        <direction-type>
          <dynamics>
            <p/>
          </dynamics>
        </direction-type>
        <sound dynamics="50"/>
      </direction>
    </measure>

    <!-- MEASURE 7: Glissando -->
    <measure number="7">
      <note>
        <pitch>
          <step>C</step>
          <octave>5</octave>
        </pitch>
        <duration>960</duration>
        <type>half</type>
        <notations>
          <glissando type="start" number="1" line-type="wavy"/>
        </notations>
      </note>
      <note>
        <pitch>
          <step>G</step>
          <octave>5</octave>
        </pitch>
        <duration>960</duration>
        <type>half</type>
        <notations>
          <glissando type="stop" number="1"/>
        </notations>
      </note>
    </measure>

    <!-- MEASURE 8: Vibrato (wavy line) with ff dynamic -->
    <measure number="8">
      <direction placement="below">
        <direction-type>
          <dynamics>
            <ff/>
          </dynamics>
        </direction-type>
        <sound dynamics="110"/>
      </direction>
      <note>
        <pitch>
          <step>A</step>
          <octave>5</octave>
        </pitch>
        <duration>1920</duration>
        <type>whole</type>
        <notations>
          <ornaments>
            <wavy-line type="start" number="1"/>
          </ornaments>
        </notations>
      </note>
    </measure>

    <!-- MEASURE 9: Sul ponticello technique (continues vibrato) -->
    <measure number="9">
      <direction placement="above">
        <direction-type>
          <words>sul pont.</words>
        </direction-type>
      </direction>
      <note>
        <pitch>
          <step>E</step>
          <octave>5</octave>
        </pitch>
        <duration>480</duration>
        <type>quarter</type>
        <notations>
          <technical>
            <other-technical>sul ponticello</other-technical>
          </technical>
        </notations>
      </note>
      <note>
        <pitch>
          <step>F</step>
          <octave>5</octave>
        </pitch>
        <duration>480</duration>
        <type>quarter</type>
      </note>
      <note>
        <pitch>
          <step>G</step>
          <octave>5</octave>
        </pitch>
        <duration>480</duration>
        <type>quarter</type>
      </note>
      <note>
        <pitch>
          <step>A</step>
          <octave>5</octave>
        </pitch>
        <duration>480</duration>
        <type>quarter</type>
        <notations>
          <ornaments>
            <wavy-line type="stop" number="1"/>
          </ornaments>
        </notations>
      </note>
    </measure>

    <!-- MEASURE 10: Sul tasto technique with p dynamic -->
    <measure number="10">
      <direction placement="above">
        <direction-type>
          <words>sul tasto</words>
        </direction-type>
      </direction>
      <direction placement="below">
        <direction-type>
          <dynamics>
            <p/>
          </dynamics>
        </direction-type>
        <sound dynamics="50"/>
      </direction>
      <note>
        <pitch>
          <step>G</step>
          <octave>5</octave>
        </pitch>
        <duration>480</duration>
        <type>quarter</type>
        <notations>
          <technical>
            <other-technical>sul tasto</other-technical>
          </technical>
        </notations>
      </note>
      <note>
        <pitch>
          <step>F</step>
          <octave>5</octave>
        </pitch>
        <duration>480</duration>
        <type>quarter</type>
      </note>
      <note>
        <pitch>
          <step>E</step>
          <octave>5</octave>
        </pitch>
        <duration>480</duration>
        <type>quarter</type>
      </note>
      <note>
        <pitch>
          <step>D</step>
          <octave>5</octave>
        </pitch>
        <duration>480</duration>
        <type>quarter</type>
      </note>
    </measure>

    <!-- MEASURE 11: Mixed articulations showcase -->
    <measure number="11">
      <direction placement="below">
        <direction-type>
          <dynamics>
            <mf/>
          </dynamics>
        </direction-type>
        <sound dynamics="80"/>
      </direction>
      <note>
        <pitch>
          <step>C</step>
          <octave>5</octave>
        </pitch>
        <duration>480</duration>
        <type>quarter</type>
        <notations>
          <articulations>
            <staccato/>
          </articulations>
        </notations>
      </note>
      <note>
        <pitch>
          <step>D</step>
          <octave>5</octave>
        </pitch>
        <duration>480</duration>
        <type>quarter</type>
        <notations>
          <articulations>
            <accent/>
          </articulations>
        </notations>
      </note>
      <note>
        <pitch>
          <step>E</step>
          <octave>5</octave>
        </pitch>
        <duration>240</duration>
        <type>eighth</type>
        <notations>
          <slur type="start" number="2"/>
        </notations>
      </note>
      <note>
        <pitch>
          <step>F</step>
          <octave>5</octave>
        </pitch>
        <duration>240</duration>
        <type>eighth</type>
      </note>
      <note>
        <pitch>
          <step>G</step>
          <octave>5</octave>
        </pitch>
        <duration>240</duration>
        <type>eighth</type>
      </note>
      <note>
        <pitch>
          <step>A</step>
          <octave>5</octave>
        </pitch>
        <duration>240</duration>
        <type>eighth</type>
        <notations>
          <slur type="stop" number="2"/>
        </notations>
      </note>
    </measure>

    <!-- MEASURE 12: Final crescendo to fff and fermata -->
    <measure number="12">
      <direction placement="below">
        <direction-type>
          <wedge type="crescendo"/>
        </direction-type>
      </direction>
      <note>
        <pitch>
          <step>D</step>
          <octave>5</octave>
        </pitch>
        <duration>480</duration>
        <type>quarter</type>
      </note>
      <note>
        <pitch>
          <step>E</step>
          <octave>5</octave>
        </pitch>
        <duration>480</duration>
        <type>quarter</type>
      </note>
      <note>
        <pitch>
          <step>F</step>
          <octave>5</octave>
        </pitch>
        <duration>480</duration>
        <type>quarter</type>
      </note>
      <direction placement="below">
        <direction-type>
          <wedge type="stop"/>
        </direction-type>
      </direction>
      <direction placement="below">
        <direction-type>
          <dynamics>
            <fff/>
          </dynamics>
        </direction-type>
        <sound dynamics="120"/>
      </direction>
      <note>
        <pitch>
          <step>G</step>
          <octave>5</octave>
        </pitch>
        <duration>480</duration>
        <type>quarter</type>
        <notations>
          <fermata type="upright"/>
        </notations>
      </note>
      <barline location="right">
        <bar-style>light-heavy</bar-style>
      </barline>
    </measure>

  </part>
</score-partwise>
